<svg width="18" height="23" viewBox="0 0 18 23" fill="none" xmlns="http://www.w3.org/2000/svg">
<path d="M9 0C13.9706 0 18 4.38296 18 9.26855L17.9932 9.63379C17.7208 17.2853 9 23 9 23C9 23 0.279185 17.2853 0.00683594 9.63379L0 9.26855C0 4.38296 4.02944 0 9 0ZM9 1C4.62512 1 1 4.89082 1 9.26855C1.00012 12.8103 3.04694 16.0079 5.2373 18.3965C6.31911 19.5762 7.40398 20.5237 8.21875 21.1758C8.52199 21.4185 8.78816 21.6175 9 21.7734C9.21184 21.6175 9.47801 21.4185 9.78125 21.1758C10.596 20.5237 11.6809 19.5762 12.7627 18.3965C14.9531 16.0079 16.9999 12.8103 17 9.26855C17 4.89082 13.3749 1 9 1ZM9 4C11.7614 4 14 6.23858 14 9C14 11.7614 11.7614 14 9 14C6.23858 14 4 11.7614 4 9C4 6.23858 6.23858 4 9 4ZM9 5C6.79086 5 5 6.79086 5 9C5 11.2091 6.79086 13 9 13C11.2091 13 13 11.2091 13 9C13 6.79086 11.2091 5 9 5Z" fill="black"/>
</svg>
